<svg width="248" height="221" viewBox="0 0 248 221" fill="none" xmlns="http://www.w3.org/2000/svg">
<path d="M104.626 0L91.0918 4.48257L95.876 17.8861L104.626 0Z" fill="#455A64"/>
<path d="M106.151 58.0515L101.739 49.7053C110.374 45.1406 114.785 38.4495 114.161 30.8646C113.489 22.7094 106.974 15.2071 97.9482 12.1959L100.937 3.24023C113.694 7.49658 122.579 18.0358 123.571 30.0904C124.51 41.5116 118.161 51.7033 106.151 58.0515Z" fill="#455A64"/>
<g opacity="0.3">
<path d="M113.733 36.7933C113.733 36.7933 117.928 38.1523 123.376 35.1572L122.832 39.2454L112.752 43.0594L112.532 39.99L113.733 36.7933Z" fill="#1A2793"/>
</g>
<path d="M103.986 117.473C75.8157 113.623 53.0515 105.259 36.3261 92.6155C22.1579 81.9043 16.4889 71.1416 14.626 67.6048C9.75862 58.3637 7.66229 48.3624 8.56327 38.6812C10.2194 20.8878 23.1734 10.1536 31.4766 7.27977C38.4873 4.85388 47.8361 4.83433 53.9916 5.89116C60.7398 7.05076 67.2824 9.33309 73.4384 12.6756L67.7778 23.1014C62.764 20.3789 57.4498 18.5228 51.9835 17.5838C46.6475 16.6672 39.4988 17.0571 35.357 18.4909C30.975 20.0075 21.5462 27.2075 20.3755 39.781C19.6884 47.1659 21.3301 54.8754 25.1228 62.0765C26.6807 65.0342 31.4224 74.0356 43.4809 83.1521C58.5641 94.5554 79.4621 102.148 105.593 105.72L103.986 117.473Z" fill="#3D53DB"/>
<g opacity="0.3">
<path d="M41.8797 81.8809L30.6523 87.9459L35.555 92.052L46.5081 85.3636L41.8797 81.8809Z" fill="#1A2793"/>
</g>
<g opacity="0.3">
<path d="M79.9277 100.533C79.9277 100.533 79.9344 111.632 81.7884 113.301L85.6989 114.226L82.7072 101.201L79.9277 100.533Z" fill="#1A2793"/>
</g>
<path d="M64.6582 26.6687L79.4772 22.6419L75.1175 7.9458L64.6582 26.6687Z" fill="#3D53DB"/>
<path d="M178.69 213.31L177.027 201.955C211.308 196.936 229.258 169.225 235.384 157.543L245.547 162.873C238.604 176.112 218.192 207.526 178.69 213.31Z" fill="#3D53DB"/>
<path d="M247.169 170.541L244.887 152.703L227.465 160.723L247.169 170.541Z" fill="#3D53DB"/>
<g opacity="0.3">
<path d="M200.923 193.906L198.141 195.363L199.908 207.22L204.609 204.963L200.923 193.906Z" fill="#1A2793"/>
</g>
<path d="M75.8284 206.279C60.3084 203.671 38.2637 197.041 21.3746 180.266C5.59657 164.595 -1.92408 142.649 1.74799 122.993C3.64156 112.859 8.55702 103.001 15.962 94.4851C22.8107 86.6098 31.6284 80.0074 41.4632 75.3919C57.7502 67.7489 77.6265 64.4997 102.226 65.4571L101.858 74.8909C78.8029 73.9921 60.3609 76.952 45.4749 83.9381C27.3385 92.4497 14.14 108.079 11.0293 124.727C7.92303 141.353 14.4366 160.067 28.0284 173.567C43.1574 188.594 63.2242 194.587 77.3936 196.968L75.8284 206.279Z" fill="#455A64"/>
<g opacity="0.3">
<path d="M68.3392 195.081L65.5508 204.113L72.4481 205.876L72.1906 195.975L68.3392 195.081Z" fill="#1A2793"/>
</g>
<path d="M75.9625 77.9537C73.1796 63.0671 82.3023 48.5436 96.9169 44.5732L98.3692 44.1789C114.279 40.8391 126.003 52.4854 128.901 68.4813L139.555 129.403L118.543 147.964L106.828 141.264C105.82 136.798 103.654 127.567 103.62 127.575C103.62 127.575 87.9283 129.323 83.6535 114.321C81.589 107.074 78.5515 91.8041 75.9625 77.9537Z" fill="#AE7461"/>
<path d="M103.62 127.571C103.62 127.571 113.259 125.55 121.646 116.453C121.646 116.453 120.005 129.05 104.616 131.775L103.62 127.571Z" fill="#6F4439"/>
<path d="M84.677 90.3258C84.9446 91.472 86.1366 92.1898 87.3392 91.9317C88.539 91.6737 89.297 90.5381 89.0283 89.3913C88.7602 88.2451 87.5687 87.5257 86.3684 87.7832C85.1663 88.0418 84.4089 89.1796 84.677 90.3258Z" fill="#263238"/>
<path d="M80.9692 83.7197C81.3116 83.9275 82.6125 82.2797 84.9278 81.6574C87.2314 81.0022 89.2523 81.7317 89.426 81.3798C89.5154 81.2212 89.1065 80.7883 88.2212 80.4509C87.3481 80.113 85.9657 79.9287 84.5257 80.3264C83.0873 80.7263 82.0188 81.5854 81.4697 82.3177C80.9072 83.0572 80.8033 83.6292 80.9692 83.7197Z" fill="#263238"/>
<path d="M104.494 85.2291C104.763 86.3753 105.954 87.0931 107.157 86.8345C108.356 86.577 109.114 85.4408 108.846 84.2946C108.578 83.1484 107.386 82.4295 106.186 82.687C104.983 82.9451 104.226 84.0835 104.494 85.2291Z" fill="#263238"/>
<path d="M103.79 78.1086C104.133 78.3164 105.436 76.6691 107.749 76.0469C110.052 75.3928 112.073 76.1212 112.248 75.7693C112.336 75.6106 111.93 75.1777 111.042 74.8415C110.169 74.503 108.786 74.3192 107.347 74.7158C105.908 75.1157 104.84 75.9754 104.29 76.7071C103.73 77.4461 103.625 78.0192 103.79 78.1086Z" fill="#263238"/>
<path d="M100.32 98.1428C100.295 98.0087 98.7894 98.1506 96.3786 98.4857C95.7709 98.5852 95.1799 98.6204 94.9716 98.2439C94.7163 97.8551 94.7906 97.1513 94.89 96.3861C95.057 94.8059 95.2313 93.1491 95.4145 91.4136C96.101 84.3504 96.4267 78.6083 96.1424 78.5826C95.8575 78.558 95.0699 84.2616 94.384 91.3248C94.2292 93.0631 94.0795 94.7198 93.9393 96.3045C93.8986 97.0368 93.7209 97.9026 94.2628 98.7064C94.542 99.1046 95.0626 99.3074 95.4687 99.3063C95.8793 99.3186 96.2133 99.2348 96.5105 99.1734C98.8894 98.6617 100.347 98.2768 100.32 98.1428Z" fill="#263238"/>
<path d="M112.897 70.3694C112.591 69.7471 110.245 70.3157 107.413 70.285C104.579 70.3118 102.236 69.7404 101.928 70.3616C101.793 70.6582 102.253 71.2245 103.234 71.7513C104.206 72.2786 105.713 72.7159 107.411 72.7187C109.109 72.7182 110.616 72.283 111.59 71.7574C112.571 71.2318 113.032 70.666 112.897 70.3694Z" fill="#263238"/>
<path d="M79.0149 76.9698C79.6327 77.3737 81.3832 76.3425 83.6505 75.7354C85.8988 75.0617 87.9404 75.0165 88.2425 74.3507C88.3682 74.034 87.9303 73.5826 86.9612 73.2983C86.0055 73.0129 84.5141 72.9609 82.9618 73.4C81.4101 73.8412 80.1789 74.6657 79.5254 75.4081C78.8613 76.156 78.7367 76.7665 79.0149 76.9698Z" fill="#263238"/>
<path d="M130.658 79.6131C130.884 79.4327 140.212 74.0905 142.679 84.4705C145.145 94.851 133.292 95.5297 133.203 95.2365C133.114 94.9426 130.658 79.6131 130.658 79.6131Z" fill="#AE7461"/>
<path d="M136.362 90.2108C136.4 90.1667 136.573 90.294 136.912 90.3616C137.242 90.4275 137.777 90.3996 138.27 90.0684C139.271 89.4054 139.781 87.4448 139.387 85.5618C139.189 84.6111 138.777 83.7587 138.266 83.0935C137.768 82.4098 137.151 81.9959 136.575 82.0283C135.996 82.0322 135.683 82.4556 135.626 82.7779C135.556 83.1007 135.671 83.2923 135.62 83.3236C135.598 83.3566 135.356 83.2024 135.338 82.7538C135.333 82.5371 135.396 82.2634 135.592 82.0065C135.793 81.7445 136.135 81.554 136.529 81.5043C137.343 81.3697 138.238 81.9344 138.801 82.665C139.407 83.3884 139.893 84.3413 140.115 85.4093C140.546 87.5168 139.94 89.7288 138.543 90.5192C137.858 90.8834 137.196 90.8079 136.823 90.6376C136.44 90.4572 136.331 90.2388 136.362 90.2108Z" fill="#6F4439"/>
<path d="M51.2119 69.0479C51.2303 68.3972 51.5543 67.7878 52.0223 67.3354C53.0429 66.3484 54.4343 66.1132 55.752 65.7753C59.0319 64.9335 62.0957 63.308 64.6741 61.1145C63.5262 60.8414 62.4191 60.4403 61.4131 59.8242C59.3347 58.5534 57.7567 56.2225 57.9874 53.7977C58.0304 53.3425 58.17 52.8431 58.5633 52.6102C59.1877 52.2415 59.9362 52.7621 60.5322 53.1744C62.4912 54.5306 64.0965 54.9294 66.3459 54.144C67.7429 53.6564 69.0527 53.0029 70.0107 52.0321C70.0442 51.9745 70.0721 51.9131 70.1062 51.8561C70.5123 51.1702 70.9117 50.5122 71.3071 49.8732C71.3077 49.8709 71.3088 49.8693 71.3094 49.8676L71.3088 49.8709C74.2838 45.0638 76.9974 41.5761 80.1198 39.3563C84.6968 36.1021 92.9698 33.245 98.584 33.3639C104.198 33.4835 109.969 36.6316 112 41.8666C114.362 38.652 118.814 37.6069 122.769 38.1923L122.85 38.1308C127.212 38.5995 130.511 42.2972 132.679 46.1101C132.798 46.3184 132.908 46.5323 133.024 46.7429C134.898 48.5706 137.187 49.9732 139.696 50.7272C140.139 50.8602 140.65 51.0305 140.805 51.4662C140.958 51.8975 140.672 52.3544 140.372 52.7007C139.575 53.6212 138.561 54.344 137.445 54.8311C138.046 55.717 138.703 56.5599 139.453 57.3352C140.091 57.9949 140.851 58.7852 140.646 59.679C140.488 60.3705 139.763 60.8129 139.057 60.8771C138.351 60.9402 137.655 60.7079 136.984 60.4788C137.689 61.4441 138.394 62.4104 139.1 63.3756C137.707 63.9772 136.174 64.2213 134.66 64.1319C134.724 68.1682 135.785 75.4174 135.42 78.251C132.678 78.9599 131.937 78.8208 130.658 79.6151C129.005 80.6417 130.452 83.658 127.898 83.3151C126.597 83.1402 123.688 79.0671 122.999 77.9505C118.427 70.5388 115.483 62.1306 114.421 53.4877C112.332 52.1131 109.976 51.1445 107.523 50.6535L107.741 50.7725C103.146 50.3161 97.9992 50.0167 94.4517 52.9738C91.7002 55.2679 90.6411 58.9472 88.9268 62.0926C85.6776 68.0531 81.2967 71.8693 74.7692 73.7344C75.2725 78.4577 76.8929 85.9912 77.6933 90.319L71.992 82.6386L71.9976 82.6738C71.5825 82.2432 71.2178 81.7963 70.8614 81.3461L70.7435 81.212L70.7391 81.193C70.1704 80.4697 69.6191 79.7402 68.9539 79.0498C68.9433 79.0654 68.9326 79.0805 68.9215 79.0962C67.0955 81.6941 62.9341 79.3888 64.163 76.4602C64.4065 75.8793 64.7344 75.3353 65.1433 74.8532C64.3233 76.1005 62.8593 76.9557 61.3684 76.8619C59.8781 76.768 58.4649 75.6218 58.2382 74.1455C58.084 73.1384 58.5778 72.086 59.3765 71.4817C57.5405 72.0743 55.5296 72.1257 53.6757 71.5861C52.4614 71.232 51.1716 70.4796 51.2119 69.0479Z" fill="#263238"/>
<path d="M108.277 44.7598C108.256 44.8061 109.009 45.0089 110.134 45.7875C111.248 46.564 112.647 48.0447 113.673 50.2707C114.19 51.375 114.652 52.6385 114.986 54.0366C115.328 55.4336 115.575 56.9579 115.845 58.5616C116.122 60.1641 116.409 61.8583 116.925 63.5687C117.184 64.4222 117.499 65.2779 117.898 66.113C118.297 66.9318 118.748 67.8166 119.58 68.4042C120.245 68.8857 121.18 68.9461 121.896 68.6109C122.623 68.2948 123.201 67.7289 123.563 67.0592C124.267 65.6851 124.164 64.1803 124.101 62.8475L123.791 62.9626C124.587 63.9837 125.393 64.9869 126.401 65.7007C127.399 66.423 128.621 66.7659 129.741 66.6012C130.299 66.5196 130.829 66.3001 131.241 65.9515C131.663 65.6041 131.916 65.1237 132.054 64.6484C132.179 64.1675 132.185 63.6709 132.053 63.2251C131.919 62.7805 131.641 62.3951 131.282 62.1611L131.155 62.3431C132.646 63.3961 134.054 63.8167 135.004 64.0083C135.483 64.1038 135.857 64.1395 136.109 64.1591C136.361 64.1719 136.492 64.1719 136.493 64.1619C136.493 64.1507 136.364 64.1311 136.115 64.0976C135.867 64.0591 135.498 64.0043 135.029 63.8921C134.098 63.6664 132.725 63.2184 131.285 62.1638L131.158 62.3459C131.799 62.7649 132.056 63.7083 131.8 64.578C131.669 65.0081 131.435 65.4376 131.061 65.7359C130.692 66.0415 130.209 66.2381 129.698 66.3074C128.667 66.4487 127.526 66.1258 126.589 65.436C125.635 64.7517 124.853 63.7737 124.064 62.7498L123.729 62.3158L123.754 62.8654C123.816 64.1965 123.89 65.6471 123.245 66.8883C122.921 67.4882 122.39 68.0015 121.753 68.2763C121.118 68.5646 120.363 68.5137 119.785 68.1032C119.06 67.5965 118.613 66.7631 118.223 65.9566C117.833 65.1416 117.523 64.3043 117.267 63.4653C116.754 61.7851 116.46 60.1038 116.176 58.5052C115.896 56.9043 115.637 55.3755 115.279 53.9634C114.927 52.5508 114.445 51.2733 113.904 50.159C112.832 47.9124 111.372 46.4232 110.213 45.6714C109.044 44.9151 108.277 44.7598 108.277 44.7598Z" fill="#455A64"/>
<path d="M64.8428 70.7981C64.8406 70.8037 64.8898 70.8288 64.9898 70.8724C65.1098 70.9227 65.2568 70.9836 65.4355 71.0579C65.631 71.1422 65.8768 71.2366 66.1778 71.3159C66.4761 71.4031 66.8185 71.5148 67.2179 71.5807C68.7886 71.9125 71.21 72.0359 73.9979 71.1914C76.7606 70.3619 79.8847 68.5638 82.3508 65.6101C84.8616 62.701 86.7535 58.8491 88.0483 54.6475C88.7124 52.5439 89.1604 50.4431 89.7352 48.4646C90.3033 46.4861 91.0059 44.6149 92.0203 43.0286C93.0168 41.4377 94.3038 40.1312 95.7589 39.3235C96.4805 38.9057 97.2514 38.6667 98.0027 38.5047C98.7612 38.3645 99.5069 38.346 100.212 38.4041C101.627 38.5298 102.856 38.9996 103.836 39.5514C104.82 40.1089 105.549 40.7725 106.083 41.3634C107.108 42.594 107.361 43.4805 107.412 43.4525C107.419 43.4503 107.401 43.3978 107.362 43.2961C107.312 43.1749 107.252 43.028 107.179 42.8481C107.007 42.4594 106.691 41.912 106.191 41.2713C105.666 40.6557 104.936 39.962 103.939 39.3744C102.947 38.7934 101.694 38.293 100.238 38.1472C99.5119 38.079 98.7411 38.0902 97.9524 38.2282C97.1726 38.3868 96.3621 38.6337 95.6136 39.0593C94.0982 39.8843 92.7649 41.2266 91.7377 42.8487C90.6909 44.4686 89.9698 46.3739 89.3933 48.3657C88.8091 50.3599 88.3594 52.4562 87.7009 54.5402C86.4161 58.7106 84.5538 62.5172 82.0961 65.3922C79.6803 68.3136 76.6366 70.0943 73.923 70.9456C71.1894 71.808 68.8065 71.727 67.2458 71.4416C65.6701 71.1489 64.8602 70.7478 64.8428 70.7981Z" fill="#455A64"/>
<path d="M61.8615 64.4579C61.8537 64.4825 62.0799 64.5696 62.4972 64.7065C62.9116 64.8517 63.5317 65.0042 64.3064 65.1388C65.0812 65.2796 66.0179 65.36 67.0607 65.3651C68.1025 65.3516 69.2487 65.2522 70.4295 65.0154C71.6075 64.7651 72.7001 64.4038 73.6625 64.0044C74.6177 63.5871 75.4466 63.143 76.103 62.7074C76.761 62.2767 77.2698 61.8918 77.5927 61.5947C77.9217 61.3037 78.0948 61.1344 78.0781 61.1154C78.0345 61.0624 77.2989 61.6952 75.9667 62.4878C75.3036 62.8894 74.4769 63.3022 73.533 63.6938C72.5823 64.0686 71.5092 64.4132 70.3547 64.6585C69.1978 64.8897 68.0768 64.9975 67.0552 65.0294C66.0335 65.0422 65.1108 64.9903 64.3433 64.8841C62.8061 64.6819 61.8805 64.392 61.8615 64.4579Z" fill="#455A64"/>
<path d="M108.919 103.41C108.961 103.638 107.207 104.143 105.076 104.815C102.942 105.481 101.215 106.069 101.119 105.858C101.026 105.658 102.642 104.717 104.831 104.033C107.017 103.345 108.882 103.193 108.919 103.41Z" fill="#263238"/>
<path d="M101.052 71.2819C101.061 71.3082 100.773 71.4406 100.271 71.4596C99.7714 71.4819 99.0631 71.3411 98.4073 70.9328C97.7532 70.5217 97.317 69.9458 97.1193 69.4867C96.9165 69.0258 96.9098 68.7097 96.9377 68.7063C96.9835 68.6957 97.0584 68.989 97.2913 69.399C97.5209 69.809 97.9454 70.3184 98.5526 70.701C99.162 71.0797 99.8054 71.2389 100.275 71.2663C100.744 71.2976 101.041 71.2361 101.052 71.2819Z" fill="#6F4439"/>
<path d="M110.828 105.06C110.753 105.032 111.026 104.363 110.843 103.537C110.681 102.707 110.162 102.202 110.22 102.146C110.242 102.121 110.407 102.21 110.605 102.436C110.803 102.658 111.016 103.029 111.111 103.481C111.204 103.933 111.158 104.357 111.065 104.641C110.973 104.927 110.858 105.075 110.828 105.06Z" fill="#6F4439"/>
<path d="M53.0103 106.167C53.0103 106.167 65.2454 81.3532 66.0827 80.3556C66.92 79.358 71.3757 68.9819 71.3757 68.9819L77.6083 61.5327C77.6083 61.5327 80.5319 61.9712 78.6757 65.7544L76.0298 70.7939L85.7473 61.04C85.7473 61.04 88.6251 61.373 87.5046 64.4295C86.6717 66.7006 83.704 70.2185 83.704 70.2185L92.4256 62.6482C92.4256 62.6482 96.0541 63.2073 94.3136 67.014C93.1819 69.489 83.0159 80.7248 83.0159 80.7248C83.0159 80.7248 88.0872 77.5917 89.6897 76.5517C91.2923 75.5116 92.9468 73.2505 94.1298 73.4644C95.3129 73.6784 97.3779 75.5088 94.2968 79.0066C91.2157 82.5044 82.5472 88.0784 81.2848 88.7711C80.0224 89.4637 80.0224 89.4637 80.0224 89.4637C80.0224 89.4637 78.521 93.3525 76.404 95.231C76.404 95.231 72.9252 106.255 71.1718 109.29C69.2799 112.564 66.1396 114.341 66.1396 114.341L60.7879 128.797L45.502 118.24L53.0103 106.167Z" fill="#AE7461"/>
<path d="M53.0107 106.168C53.0107 106.168 52.8521 106.443 52.5287 106.972C52.2019 107.505 51.7199 108.289 51.0904 109.314C49.8185 111.371 47.9501 114.393 45.5521 118.271L45.5353 118.191C49.647 121.022 54.8144 124.58 60.8364 128.726L60.7068 128.767C62.3077 124.429 64.1102 119.548 66.0451 114.306C66.0535 114.285 66.068 114.267 66.0864 114.256L66.0898 114.253C67.5069 113.384 68.8335 112.237 69.9473 110.875C70.4986 110.189 71.0036 109.447 71.3962 108.637C71.7889 107.824 72.1503 106.98 72.4899 106.117C73.8495 102.665 75.0756 98.9914 76.2949 95.1965C76.3017 95.1764 76.3139 95.1585 76.3285 95.1451C77.1082 94.4368 77.7701 93.5302 78.36 92.5527C78.9437 91.5713 79.4716 90.5139 79.9128 89.4208C79.9234 89.3945 79.943 89.3733 79.9659 89.3599C80.606 89.0019 81.2624 88.6656 81.8863 88.2752C82.5147 87.8858 83.1425 87.4848 83.7676 87.072C85.0193 86.2486 86.2694 85.3929 87.5128 84.5025C88.7551 83.6111 89.9934 82.6861 91.2011 81.7024C92.3998 80.7137 93.6013 79.6826 94.5855 78.4582C95.0614 77.8404 95.4881 77.1623 95.6831 76.411C95.8903 75.6737 95.7831 74.8291 95.253 74.2616C94.9988 73.979 94.6693 73.7544 94.3079 73.6371C93.9482 73.5087 93.5879 73.612 93.2438 73.8075C92.5657 74.2069 91.9803 74.7872 91.3737 75.333C90.7738 75.8832 90.1404 76.4445 89.4248 76.864C88.726 77.3008 88.0256 77.7388 87.3229 78.1789C85.9175 79.0581 84.5032 79.9423 83.0816 80.831C83.023 80.8679 82.9459 80.85 82.909 80.7914C82.8789 80.7428 82.8867 80.6808 82.923 80.6406C83.6648 79.8094 84.4652 78.9118 85.269 78.0113C87.515 75.4598 89.7276 72.9199 91.8071 70.3281C92.3249 69.6785 92.8321 69.0244 93.3153 68.358C93.7923 67.685 94.2464 67.0136 94.4766 66.236C94.7212 65.4803 94.7469 64.6279 94.3353 63.9671C93.9247 63.3096 93.1555 62.9226 92.4071 62.7701L92.507 62.741C89.5438 65.3121 86.6331 67.8375 83.7838 70.3097C83.7335 70.3533 83.657 70.3483 83.6128 70.2974C83.5737 70.2522 83.5749 70.1846 83.6117 70.1405C84.8445 68.6323 86.0175 67.0789 86.9218 65.4132C87.1386 64.9937 87.3508 64.5698 87.4737 64.1235C87.6195 63.685 87.6804 63.2186 87.6089 62.7796C87.5396 62.34 87.3056 61.9395 86.9542 61.6674C86.604 61.3988 86.1655 61.2245 85.7343 61.1569L85.8304 61.1234C82.4661 64.4972 79.2213 67.7509 76.1084 70.8728C76.0654 70.9158 75.9955 70.9158 75.9525 70.8733C75.9173 70.8387 75.9112 70.7856 75.933 70.7437C76.8144 69.0674 77.6752 67.4303 78.5175 65.8288C78.7136 65.425 78.8946 65.0217 79.0169 64.5988C79.0934 64.3916 79.1102 64.1732 79.1604 63.9621C79.1677 63.7487 79.2074 63.532 79.1699 63.3225C79.1359 62.9013 78.9672 62.4986 78.6739 62.2059C78.3879 61.9099 77.9897 61.7138 77.5947 61.635L77.6892 61.5993C75.5001 64.2112 73.4272 66.6851 71.4504 69.0434L71.4649 69.02C70.1947 71.9502 68.9681 74.7353 67.7454 77.3455C67.4359 77.9968 67.1321 78.6386 66.8103 79.2626C66.6511 79.5754 66.488 79.882 66.3026 80.1814C66.0942 80.4875 65.93 80.7417 65.763 81.0472C65.1033 82.2297 64.5057 83.4033 63.9192 84.531C61.5949 89.0549 59.6315 92.9795 58.0212 96.1879C56.4164 99.3953 55.168 101.891 54.3184 103.589C53.895 104.432 53.571 105.077 53.3509 105.516C53.1292 105.948 53.0107 106.168 53.0107 106.168C53.0107 106.168 53.1124 105.94 53.3235 105.503C53.538 105.061 53.8536 104.413 54.2664 103.564C55.106 101.86 56.3387 99.3573 57.924 96.1399C59.5198 92.9242 61.4692 88.9929 63.7817 84.4612C64.366 83.3306 64.9592 82.1576 65.6195 80.9673C65.7747 80.6757 65.9853 80.3557 66.163 80.0915C66.3395 79.8049 66.5031 79.4972 66.6601 79.1866C66.9785 78.566 67.2812 77.9236 67.5884 77.2735C68.8033 74.6638 70.0249 71.8765 71.289 68.9457C71.2929 68.9373 71.2979 68.9289 71.3035 68.9222C73.2764 66.5605 75.3454 64.0838 77.53 61.468L77.5328 61.4647C77.5557 61.4373 77.5914 61.4261 77.6244 61.4323C78.0768 61.5222 78.4941 61.7294 78.8214 62.0612C79.1509 62.388 79.3409 62.8449 79.3777 63.3024C79.4174 63.5325 79.3772 63.761 79.3688 63.99C79.318 64.2112 79.2978 64.4435 79.2196 64.658C79.094 65.0965 78.9057 65.5166 78.7074 65.926C77.8668 67.5291 77.0077 69.168 76.1279 70.8465L75.9525 70.7175C79.0627 67.5928 82.3041 64.3357 85.665 60.9586L85.6684 60.9552C85.6935 60.9301 85.7287 60.9201 85.7617 60.9251C86.2488 61.0016 86.7046 61.1831 87.1 61.4837C87.4927 61.7847 87.7664 62.2489 87.8424 62.7405C87.9228 63.232 87.853 63.733 87.7022 64.1928C87.572 64.6636 87.3547 65.0976 87.1341 65.5255C86.2136 67.2219 85.0406 68.7747 83.7983 70.2974L83.6262 70.1282C86.4744 67.6548 89.384 65.1278 92.3462 62.5556L92.349 62.5528C92.3763 62.5288 92.4126 62.5204 92.4461 62.5265C92.8673 62.6064 93.2566 62.755 93.6236 62.9672C93.9839 63.1817 94.3246 63.4627 94.5469 63.8358C95.0122 64.5821 94.9715 65.5227 94.7162 66.3097C94.5771 66.7047 94.433 67.0996 94.209 67.4604C94.0007 67.8268 93.7566 68.1609 93.5197 68.5033C93.0326 69.1758 92.5232 69.8327 92.0043 70.484C89.9192 73.083 87.7066 75.624 85.4584 78.1772C84.654 79.0788 83.8525 79.977 83.1101 80.8087L82.9509 80.6182C84.3714 79.7301 85.7846 78.8464 87.1894 77.9683C88.5825 77.0634 90.0543 76.3133 91.2072 75.1498C91.8155 74.6051 92.397 74.0209 93.1237 73.5913C93.3103 73.4925 93.5052 73.3981 93.7247 73.3573C93.9403 73.297 94.1856 73.3444 94.385 73.402C94.7944 73.5355 95.1558 73.7824 95.4396 74.098C96.0333 74.7314 96.1484 75.6871 95.9238 76.4725C95.7138 77.2768 95.2686 77.9762 94.7804 78.6101C93.7705 79.8647 92.5618 80.8975 91.3564 81.8918C90.1426 82.8793 88.9009 83.806 87.6547 84.6992C86.4079 85.5912 85.1551 86.4481 83.8999 87.272C83.2732 87.6853 82.6437 88.0869 82.0114 88.4779C81.3774 88.8745 80.7194 89.2108 80.0804 89.5671L80.1335 89.5063C79.6833 90.6184 79.1526 91.6785 78.56 92.6734C77.9612 93.662 77.2898 94.5843 76.4815 95.3171L76.5145 95.2657C75.2901 99.0646 74.0601 102.737 72.6921 106.198C72.3509 107.063 71.9861 107.91 71.5878 108.732C71.1862 109.559 70.6718 110.312 70.111 111.007C68.9754 112.391 67.6421 113.542 66.1903 114.429L66.235 114.377C64.29 119.615 62.4786 124.493 60.8693 128.827C60.8531 128.872 60.8034 128.895 60.7587 128.878C60.752 128.876 60.7453 128.872 60.7392 128.868C54.7295 124.704 49.5722 121.132 45.4689 118.289C45.4426 118.271 45.4359 118.235 45.4521 118.209C47.8702 114.344 49.7543 111.333 51.0373 109.284C51.6785 108.265 52.169 107.486 52.5024 106.957C52.8331 106.433 53.0107 106.168 53.0107 106.168Z" fill="#6F4439"/>
<path d="M85.1105 68.6283C85.1234 68.6395 84.9324 68.8802 84.5754 69.3064C84.2179 69.7315 83.6906 70.3381 83.0276 71.0771C81.6965 72.5507 79.8169 74.5537 77.6044 76.6282C75.8499 78.2755 74.1435 79.7093 72.7107 80.7868L72.6951 80.7986L72.6772 80.8036C71.3567 81.1773 70.3642 81.7526 69.7162 82.1961C69.0672 82.6441 68.7409 82.953 68.7231 82.9329C68.7164 82.9256 68.7912 82.8418 68.9431 82.6944C69.0968 82.5486 69.3297 82.3414 69.6486 82.1017C70.2837 81.6253 71.278 81.0119 72.6208 80.6081L72.5873 80.6248C73.9955 79.5284 75.6835 78.0867 77.4324 76.4445C79.6382 74.3761 81.5345 72.397 82.8969 70.9559C83.5538 70.2543 84.0956 69.6757 84.5023 69.2405C84.8821 68.8361 85.0977 68.6172 85.1105 68.6283Z" fill="#6F4439"/>
<path d="M76.5093 70.2051C76.5344 70.2275 76.1875 70.6699 75.5932 71.3569C74.9994 72.0434 74.1532 72.9706 73.1969 73.971C72.263 74.9374 71.419 75.8115 70.7347 76.5193C70.1024 77.1689 69.7058 77.566 69.679 77.5426C69.6539 77.5202 70.0041 77.0806 70.6046 76.3986C71.2039 75.7166 72.0591 74.7983 73.0154 73.7979C73.9432 72.8271 74.7821 71.949 75.4619 71.2374C76.0886 70.5816 76.4824 70.1811 76.5093 70.2051Z" fill="#6F4439"/>
<path d="M83.2459 80.5835C83.2554 80.598 83.128 80.7008 82.889 80.8751C82.6505 81.0505 82.2963 81.2907 81.8506 81.5767C80.9602 82.1486 79.6945 82.8854 78.2416 83.5931C76.7877 84.2997 75.4264 84.841 74.4271 85.1884C73.9272 85.3627 73.52 85.4928 73.2346 85.5727C72.9497 85.6532 72.7899 85.69 72.7843 85.6738C72.7726 85.6381 73.3854 85.4118 74.3646 85.0225C75.3443 84.6343 76.686 84.0696 78.1316 83.3675C79.5755 82.6637 80.8479 81.9559 81.7579 81.4253C82.6689 80.8946 83.2252 80.5522 83.2459 80.5835Z" fill="#6F4439"/>
<path d="M51.1231 108.1C50.5885 108.812 34.7362 132.68 34.7362 132.68C34.7362 132.68 19.7641 156.005 17.5773 162.567C14.3839 172.149 13.6706 188.758 24.0015 193.211C34.3323 197.664 37.8927 197.808 50.3612 192.999C62.8297 188.19 71.9171 180.677 71.9171 180.677L69.4689 137.268L59.4151 142.428L68.0674 119.197L51.1231 108.1Z" fill="#E0E0E0"/>
<path d="M184.294 145.063C184.294 145.063 192.345 151.506 195.259 173.452C197.098 187.307 202.318 220.884 202.318 220.884L171.889 220.951C171.889 220.951 165.774 177.631 166.397 176.975C167.02 176.32 184.294 145.063 184.294 145.063Z" fill="#E0E0E0"/>
<path d="M69.4689 137.268L103.727 132.868C103.727 132.868 110.191 143.219 122.842 141.198C140.602 138.361 140.144 125.834 140.144 125.834C140.144 125.834 169.705 135.983 175.426 138.544C181.148 141.104 184.295 145.063 184.295 145.063C184.295 145.063 173.791 185.82 173.464 186.333C173.138 186.845 171.148 221.336 171.889 220.951C172.208 220.785 75.473 220.961 73.8688 220.954L70.9703 179.788L60.8311 144.688L69.4689 137.268Z" fill="#E0E0E0"/>
<path d="M63.9048 130.896C63.9127 130.899 63.8652 131.038 63.768 131.299C63.6602 131.579 63.5144 131.958 63.3306 132.435C62.9541 133.424 62.4028 134.851 61.7549 136.628C60.4484 140.177 58.771 145.126 56.9668 150.608C56.0758 153.357 55.1212 155.935 54.5872 158.377C54.2951 159.592 54.0259 160.751 53.7226 161.825C53.4282 162.9 53.0752 163.884 52.7244 164.762C52.3775 165.641 52.0899 166.444 51.8497 167.156C51.6112 167.871 51.3414 168.466 51.1135 168.943C50.8845 169.421 50.699 169.787 50.5694 170.034C50.4404 170.281 50.3689 170.409 50.3611 170.405C50.3532 170.401 50.4097 170.266 50.5242 170.013C50.6476 169.739 50.8146 169.369 51.0247 168.903C51.2386 168.419 51.4922 167.827 51.7167 167.112C51.9441 166.396 52.2222 165.583 52.5585 164.698C53.2707 162.946 53.8075 160.764 54.3621 158.323C54.8866 155.867 55.8401 153.27 56.7283 150.529C58.533 145.046 60.2383 140.102 61.5884 136.566C62.2582 134.796 62.8352 133.377 63.2396 132.399C63.4418 131.929 63.6021 131.556 63.7211 131.279C63.8333 131.025 63.8965 130.893 63.9048 130.896Z" fill="#263238"/>
<path d="M72.1853 196.58C72.1786 196.581 72.1657 196.484 72.1467 196.297C72.1283 196.092 72.1032 195.819 72.0719 195.474C72.0132 194.733 71.9306 193.687 71.8267 192.376C71.6323 189.701 71.3597 185.949 71.0407 181.552L71.043 181.569C70.4392 178.836 69.7326 175.843 68.8964 172.732C67.1804 166.286 65.1517 160.575 63.2179 156.658C62.284 154.681 61.3154 153.199 60.6462 152.179C60.2954 151.681 59.9944 151.314 59.8061 151.053C59.7184 150.933 59.6469 150.835 59.5894 150.757C59.5414 150.69 59.5185 150.653 59.5218 150.651C59.5252 150.648 59.5542 150.678 59.6089 150.741C59.6715 150.815 59.7492 150.907 59.8452 151.021C60.0463 151.272 60.3613 151.631 60.7261 152.123C61.4221 153.129 62.4191 154.606 63.3765 156.58C65.3584 160.493 67.4201 166.211 69.1382 172.667C69.9761 175.784 70.6771 178.783 71.2698 181.52L71.2714 181.529L71.272 181.538C71.5546 185.937 71.7959 189.691 71.9674 192.367C72.0434 193.68 72.1037 194.728 72.1467 195.47C72.1629 195.816 72.1752 196.09 72.1847 196.296C72.192 196.482 72.192 196.579 72.1853 196.58Z" fill="#263238"/>
<path d="M171.89 220.953C171.885 220.953 171.867 221.058 171.864 220.953C171.862 220.835 171.86 220.681 171.856 220.487C171.855 220.061 171.853 219.46 171.851 218.693C171.857 217.119 171.865 214.869 171.876 212.095C171.922 206.508 171.984 198.815 172.053 190.31V190.302L172.054 190.295C172.06 190.253 172.066 190.208 172.072 190.162C173.213 181.7 174.247 174.041 174.997 168.479C175.381 165.719 175.694 163.479 175.912 161.912C176.024 161.15 176.111 160.552 176.173 160.128C176.204 159.936 176.229 159.783 176.248 159.665C176.266 159.561 176.277 159.508 176.281 159.508C176.286 159.509 176.282 159.563 176.273 159.668C176.26 159.786 176.244 159.94 176.223 160.134C176.172 160.56 176.1 161.159 176.009 161.924C175.809 163.494 175.524 165.736 175.173 168.501C174.441 174.066 173.434 181.728 172.321 190.194C172.315 190.239 172.309 190.285 172.304 190.327L172.305 190.311C172.206 198.816 172.118 206.51 172.053 212.096C172.009 214.87 171.973 217.12 171.948 218.694C171.931 219.46 171.917 220.061 171.907 220.487C171.9 220.681 171.894 220.835 171.89 220.953C171.894 220.953 171.885 221.058 171.89 220.953Z" fill="#263238"/>
<path d="M118.315 153.79L110.421 220.775L133.519 220.884L123.552 153.79H118.315Z" fill="#3D53DB"/>
<g opacity="0.3">
<path d="M16.4326 166.838C16.4326 166.838 30.4495 191.088 53.7041 191.617L59.015 188.471L19.4919 157.092C19.4919 157.092 17.1549 163.116 16.4326 166.838Z" fill="#1A2793"/>
</g>
<path d="M100.317 133.032L103.342 127.632C103.342 127.632 120.76 140.88 120.523 141.158C120.523 141.158 138.824 121.295 139.115 120.999L143.168 127.012C143.168 127.012 126.995 147.837 126.778 148.022C126.513 148.246 116.596 146.221 116.596 146.221L108.166 142.246L100.317 133.032Z" fill="#E0E0E0"/>
<path d="M115.673 149.284L118.591 155.035H123.829L125.889 148.391L122.019 143.838H119.731L115.673 149.284Z" fill="#3D53DB"/>
<path d="M120.782 142.404C120.787 142.408 120.755 142.464 120.687 142.567C120.602 142.689 120.501 142.836 120.378 143.015C120.081 143.429 119.681 143.986 119.185 144.676C118.128 146.116 116.668 148.102 114.963 150.425L114.873 150.548L114.768 150.435C113.556 149.12 112.229 147.679 110.838 146.17C107.914 142.965 105.299 140.034 103.451 137.872C102.525 136.794 101.795 135.903 101.302 135.278C101.052 134.969 100.876 134.713 100.751 134.545C100.629 134.375 100.569 134.283 100.576 134.277C100.584 134.272 100.658 134.353 100.795 134.511C100.933 134.669 101.122 134.912 101.385 135.21C101.901 135.813 102.652 136.683 103.597 137.744C105.48 139.872 108.117 142.781 111.04 145.985C112.425 147.499 113.747 148.943 114.954 150.262L114.759 150.272C116.497 147.974 117.983 146.007 119.061 144.582C119.58 143.911 120 143.368 120.311 142.965C120.447 142.795 120.559 142.656 120.652 142.541C120.732 142.446 120.776 142.399 120.782 142.404Z" fill="#263238"/>
<path d="M143.425 128.255C143.623 128.334 142.482 130.091 140.505 132.752C138.528 135.425 135.717 139.057 132.571 143.033C130.603 145.519 128.737 147.847 127.127 149.834L127.035 149.947L126.942 149.836C125.103 147.641 123.559 145.798 122.451 144.477C121.929 143.841 121.511 143.331 121.204 142.957C121.074 142.793 120.968 142.659 120.881 142.55C120.81 142.456 120.776 142.406 120.781 142.402C120.786 142.397 120.83 142.44 120.911 142.525C121.005 142.629 121.12 142.755 121.261 142.909C121.581 143.273 122.016 143.768 122.56 144.386C123.686 145.691 125.256 147.512 127.126 149.681L126.941 149.683C128.534 147.676 130.387 145.343 132.357 142.863C135.503 138.888 138.337 135.277 140.351 132.636C142.368 130.003 143.552 128.304 143.425 128.255Z" fill="#263238"/>
<path d="M118.192 154.638C118.159 154.624 118.356 154.051 118.727 153.145C119.098 152.239 119.649 151.003 120.324 149.669C121 148.336 121.67 147.16 122.18 146.325C122.691 145.49 123.037 144.991 123.067 145.01C123.101 145.03 122.814 145.563 122.347 146.421C121.881 147.279 121.24 148.465 120.567 149.793C119.895 151.121 119.318 152.339 118.903 153.223C118.488 154.107 118.228 154.653 118.192 154.638Z" fill="#263238"/>
<path d="M123.703 154.943C123.703 155.018 122.485 155.079 120.983 155.079C119.479 155.079 118.262 155.018 118.262 154.943C118.262 154.868 119.479 154.806 120.983 154.806C122.485 154.806 123.703 154.868 123.703 154.943Z" fill="#263238"/>
<g opacity="0.3">
<path d="M102.334 136.431L115.653 152.627L122 143.729L120.781 142.403L114.861 150.348L102.334 136.431Z" fill="#1A2793"/>
</g>
<g opacity="0.3">
<path d="M122.001 143.73C122.684 144.641 125.875 153.473 127.083 153.586C128.292 153.699 142.33 130.098 142.33 130.098L127.034 149.759L122.001 143.73Z" fill="#1A2793"/>
</g>
<g opacity="0.3">
<path d="M50.5241 170.012L49.1377 173.495C49.1377 173.495 54.5296 174.031 56.3779 163.556C58.2268 153.08 58.2704 146.676 58.2704 146.676L50.5241 170.012Z" fill="#1A2793"/>
</g>
<g opacity="0.3">
<path d="M174.066 220.959L173.068 184.509L172.303 190.293L171.871 220.916L174.066 220.959Z" fill="#1A2793"/>
</g>
<g opacity="0.3">
<path d="M90.2148 135.884C90.2148 135.884 99.3202 143.886 114.978 143.839C130.636 143.792 140.283 139.271 150.376 130.54L144.657 128.551C144.657 128.551 135.452 134.82 120.982 135.095C106.513 135.37 97.6361 134.603 97.6361 134.603L90.2148 135.884Z" fill="#1A2793"/>
</g>
<path opacity="0.3" d="M110.799 220.998C110.799 220.998 114.789 214.691 121.284 211.389C128.074 207.937 131.681 208.026 131.681 208.026L130.9 202.768L121.284 203.025L112.716 209.727L111.543 214.083L110.799 220.998Z" fill="#1A2793"/>
<g opacity="0.3">
<path d="M73.8887 219.652C73.8887 219.652 77.5082 214.284 84.7758 208.076C92.0435 201.869 131.106 178.853 131.106 178.853L187.828 149.045L184.573 145.006L94.3738 188.79L72.4688 207.929L73.8887 219.652Z" fill="#1A2793"/>
</g>
<path d="M72.9723 220.783L63.5156 220.782C64.1803 207.482 70.8536 197.874 85.9117 187.454C99.7493 177.879 121.199 167.185 150.887 152.383C161.761 146.961 174.086 140.817 187.586 133.956C195.601 129.883 202.642 124.126 207.947 117.309L215.398 123.107C209.246 131.013 201.107 137.674 191.863 142.372C178.331 149.25 165.988 155.403 155.099 160.832C97.692 189.454 73.9571 200.847 72.9723 220.783Z" fill="#455A64"/>
<path d="M70.3301 192.364C46.3427 192.365 24.1019 176.193 16.9901 160.795C14.924 156.323 11.482 147.636 11.639 139.719C11.7641 133.425 14.1704 124.404 20.5388 119.692C23.559 117.458 27.798 115.862 32.17 115.313C37.1128 114.694 41.6266 115.481 44.8842 117.533L39.0142 126.853C36.6302 125.352 30.1669 126.271 27.0892 128.548C24.6527 130.35 22.7446 135.247 22.6513 139.938C22.5686 144.11 24.1499 150.029 26.9892 156.178C29.7915 162.244 36.0967 168.7 43.8559 173.447C52.5993 178.796 62.4369 181.607 71.5462 181.332L71.8651 192.342C71.354 192.356 70.8401 192.364 70.3301 192.364Z" fill="#3D53DB"/>
<g opacity="0.3">
<path d="M36.7539 126.182L39.9612 115.58C39.9612 115.58 43.5981 116.533 44.7482 117.563L38.9379 126.722" fill="#1A2793"/>
</g>
<g opacity="0.3">
<path d="M63.6074 140.367C63.8342 140.25 98.2463 168.2 123.436 174.631C148.626 181.062 169.457 182.181 177.565 180.503C185.674 178.826 195.881 175.947 195.881 175.947L194.693 168.153C194.693 168.153 165.123 170.437 145.83 169.178C126.536 167.92 79.9815 140.365 79.9815 140.365L70.7354 135.929L63.6074 140.367Z" fill="#1A2793"/>
</g>
<path d="M162.795 177.98C153.975 177.98 145.659 176.809 138.644 175.318C123.701 172.143 107.123 163.39 95.9529 157.082C93.1499 155.5 90.1191 153.744 86.6872 151.716C84.3697 150.347 82.127 149.007 79.9798 147.723C72.1894 143.067 65.3038 139.108 61.415 137.561C62.6121 133.866 63.856 130.341 65.1558 127.017C69.8652 128.89 77.0954 133.167 85.6309 138.268C87.7636 139.543 89.9906 140.874 92.2914 142.234C95.6607 144.224 98.6307 145.945 101.37 147.492C111.908 153.442 127.474 161.684 140.934 164.545C156.013 167.749 177.727 169.377 195.545 158.938C203.869 154.061 210.589 147.279 214.467 139.842C218.897 131.344 219.719 122.198 216.908 112.658C212.748 98.5368 198.347 90.7089 181.072 93.1851C170.299 94.7284 160.949 99.0607 152.7 102.884C146.479 105.766 141.106 108.257 136.024 109.155L134.107 98.3089C137.776 97.6598 142.546 95.4495 148.069 92.8901C156.563 88.9539 167.135 84.0546 179.511 82.2822C190.706 80.6786 201.222 82.4694 209.924 87.4597C218.492 92.3729 224.726 100.217 227.474 109.546C231.066 121.741 229.946 133.978 224.234 144.934C219.342 154.318 211.346 162.447 201.113 168.443C188.868 175.615 175.325 177.98 162.795 177.98Z" fill="#3D53DB"/>
<g opacity="0.3">
<path d="M180.548 82.2188C181.937 86.3695 181.117 93.3562 181.117 93.3562L178.637 93.5919C178.842 89.8461 178.534 86.1802 177.635 82.6053L180.548 82.2188Z" fill="#1A2793"/>
</g>
<g opacity="0.3">
<path d="M193.512 82.0932C193.512 82.0932 194.353 87.0204 193.512 93.2496L191.053 92.8022V81.7949L193.512 82.0932Z" fill="#1A2793"/>
</g>
<g opacity="0.3">
<path d="M218.363 119.609L218.515 123.059C218.515 123.059 225.421 116.66 226.597 107.138C225.863 105.062 225.23 103.593 224.387 102.144L218.363 119.609Z" fill="#1A2793"/>
</g>
<g opacity="0.3">
<path d="M138.09 97.1636C138.09 97.3468 139.817 108.126 139.817 108.126C138.709 108.562 137.31 108.912 135.794 109.226L134.069 98.2321C135.536 98.0852 136.873 97.6713 138.09 97.1636Z" fill="#1A2793"/>
</g>
<path d="M115.542 141.005C109.87 141.005 104.365 140.057 99.5781 138.192C97.5829 137.415 94.7934 136.187 91.8396 134.886C89.3428 133.787 86.7605 132.65 84.2988 131.622C80.8217 130.169 76.2632 130.361 75.3052 132.196L66.9473 127.788C70.6411 120.707 80.6497 119.866 87.938 122.911C90.4823 123.974 93.1065 125.129 95.6441 126.246C98.5012 127.504 101.201 128.692 103.006 129.396C109.177 131.8 117.344 132.222 124.851 130.526C134.462 128.355 146.543 120.789 152.952 112.928C159.756 104.582 161.996 94.873 159.097 86.2893C156.359 78.1811 142.717 72.7651 135.271 73.5186L134.316 64.1262C145.072 63.0325 163.545 69.9482 168.043 83.2691C172.001 94.9942 169.168 107.979 160.27 118.893C152.563 128.347 138.543 137.112 126.932 139.735C123.17 140.585 119.319 141.005 115.542 141.005Z" fill="#455A64"/>
<path d="M101.308 220.783C101.299 214.355 105.167 207.408 111.655 202.198C127.654 189.354 151.049 192.117 163.57 194.908L161.516 204.123C136.198 198.482 123.112 205.107 117.566 209.56C112.528 213.605 110.745 218.127 110.749 220.77L101.308 220.783Z" fill="#455A64"/>
<path d="M156.61 206.672L170.529 201.487L160.689 190.308L156.61 206.672Z" fill="#455A64"/>
<g opacity="0.3">
<path d="M139.218 64.0968L138.421 73.4887H135.348L134.456 64.0499C136.26 63.8616 137.887 63.8398 139.218 64.0968Z" fill="#1A2793"/>
</g>
<g opacity="0.3">
<path d="M68.3415 125.718C68.3415 125.718 76.3291 131.284 76.2213 131.32C76.1129 131.356 75.6945 131.541 75.3052 132.194L66.9473 127.786C66.9473 127.786 67.6835 126.459 68.3415 125.718Z" fill="#1A2793"/>
</g>
<path d="M146.109 24.4731L134.854 40.0987L152.858 45.8409L146.109 24.4731Z" fill="#455A64"/>
<path d="M200.783 137.094L197.006 128.441L196.948 128.467C197.014 128.436 203.58 125.259 210.113 113.99C216.699 102.632 216.641 85.3612 216.629 84.2105C215.531 62.8557 206.068 48.0361 188.503 40.1596L188.207 40.0278C176.276 34.7258 162.466 34.5616 150.313 39.5765L146.194 41.2762L142.593 32.5485L146.712 30.8488C161.241 24.8541 177.762 25.0552 192.037 31.3989L192.358 31.5425C213.157 40.869 224.809 58.9451 226.061 83.8201L226.066 83.9592C226.084 84.7998 226.403 104.718 218.28 118.727C210.185 132.688 201.721 136.684 200.783 137.094Z" fill="#455A64"/>
<path d="M175.967 138.854L165.799 134.859C167.073 131.346 168.474 128.444 170.153 125.12C172.244 120.982 174.406 116.703 176.124 111.307C182.343 91.7603 181.504 80.9887 177.613 66.8182L188.234 63.9014C192.6 79.7995 193.637 92.5948 186.62 114.647C184.636 120.883 182.165 125.774 179.986 130.088C178.458 133.108 177.016 135.963 175.967 138.854Z" fill="#3D53DB"/>
<path d="M192.646 64.3624L178.711 50.9756L171.163 68.8226L192.646 64.3624Z" fill="#3D53DB"/>
<g opacity="0.3">
<path d="M165.799 134.851L166.737 132.536L176.953 136.181L175.967 138.854L165.799 134.851Z" fill="#1A2793"/>
</g>
</svg>
